Coordinates
version=1
nRows=18
nColumns=22
inDegrees=yes

Units are S.I. units (second, meters, Newtons, ...)
If the header above contains a line with 'inDegrees', this indicates whether rotational values are in degrees (yes) or radians (no).

endheader
time	pelvis_tilt	pelvis_list	pelvis_rotation	pelvis_tx	pelvis_ty	pelvis_tz	hip_flexion_r	hip_adduction_r	hip_rotation_r	knee_angle_r	ankle_angle_r	subtalar_angle_r	hip_flexion_l	hip_adduction_l	hip_rotation_l	knee_angle_l	ankle_angle_l	subtalar_angle_l	lumbar_extension	lumbar_bending	lumbar_rotation
      2.01000000	      6.12088756	     -1.23859399	     55.66445566	      0.53865166	      1.00162834	      0.56726714	     -9.78785558	      7.21840885	    -20.56094302	     -9.88757313	     16.42977882	      1.95090972	     24.02443578	     -7.84750071	    -16.58882608	    -27.13572313	      8.67777855	      1.67648554	    -17.17084381	      4.84127237	      6.98171533
      2.02000000	      6.18928443	     -1.10545971	     55.86696479	      0.54127902	      1.00067127	      0.56224027	    -10.15824302	      7.15490972	    -20.67008249	    -10.18034167	     16.75990382	      2.12162308	     23.92237144	     -7.78273491	    -17.09212125	    -26.25881517	      8.59142833	      1.72574621	    -17.27509454	      4.72637075	      7.24131635
      2.03000000	      6.30852265	     -0.93048260	     56.03943867	      0.54393804	      0.99976890	      0.55708383	    -10.57697431	      7.09234644	    -20.74421953	    -10.53213334	     17.05418202	      2.36255958	     23.71899177	     -7.73749896	    -17.51250628	    -25.49207437	      8.52523591	      1.70630918	    -17.44529012	      4.61926503	      7.49368421
      2.04000000	      6.42818366	     -0.76209181	     56.18805986	      0.54664556	      0.99880488	      0.55179710	    -10.97167844	      7.01727922	    -20.78543205	    -10.94262555	     17.36391725	      2.60307458	     23.49980411	     -7.69701733	    -17.82331782	    -24.87164820	      8.44965205	      1.58547264	    -17.59440988	      4.50251731	      7.73390785
      2.05000000	      6.55459274	     -0.58797686	     56.31530472	      0.54940327	      0.99781519	      0.54636940	    -11.36365446	      6.93018585	    -20.79123902	    -11.40010937	     17.67076859	      2.86386551	     23.25576865	     -7.65972873	    -18.01048820	    -24.42512825	      8.33017389	      1.34135117	    -17.73601646	      4.37348561	      7.95467655
      2.06000000	      6.70107305	     -0.40704578	     56.43331888	      0.55222293	      0.99682962	      0.54076782	    -11.78266306	      6.85043730	    -20.77674433	    -11.86411204	     17.94060224	      3.19709325	     22.98896009	     -7.63386444	    -18.05321630	    -24.18158395	      8.12891474	      0.89681772	    -17.87206807	      4.24514024	      8.17192261
      2.07000000	      6.83479664	     -0.22799256	     56.53615113	      0.55508600	      0.99581924	      0.53500573	    -12.17935038	      6.74680807	    -20.71503322	    -12.37857213	     18.19206756	      3.54492898	     22.74026453	     -7.60185006	    -17.97996140	    -24.17313515	      7.84707210	      0.28453944	    -17.97376159	      4.09626962	      8.34405832
      2.08000000	      6.94261592	     -0.03529352	     56.62512461	      0.55799955	      0.99482819	      0.52905215	    -12.56705234	      6.59923185	    -20.63798582	    -12.92902158	     18.41092428	      3.91505388	     22.49884082	     -7.53956285	    -17.80881731	    -24.38583713	      7.49374657	     -0.47784828	    -18.04354906	      3.90257085	      8.50052630
      2.09000000	      7.03917402	      0.16333407	     56.73054250	      0.56090869	      0.99386718	      0.52289739	    -12.95302513	      6.43778255	    -20.52390557	    -13.49902171	     18.58722379	      4.32043349	     22.29104476	     -7.45705696	    -17.53279846	    -24.83357149	      7.09605378	     -1.39197828	    -18.08388382	      3.70012988	      8.57305438
      2.10000000	      7.12235226	      0.36793624	     56.84793063	      0.56381030	      0.99296889	      0.51653921	    -13.32815043	      6.25509633	    -20.41583459	    -14.10055605	     18.69770013	      4.76092096	     22.11067727	     -7.34468921	    -17.14529282	    -25.46937602	      6.74096867	     -2.43362413	    -18.09443539	      3.48313824	      8.62750995
      2.11000000	      7.17822495	      0.58453764	     56.97825077	      0.56664862	      0.99216783	      0.50998922	    -13.67296450	      6.03021235	    -20.29431153	    -14.76046433	     18.74761222	      5.22243366	     21.95059177	     -7.18149774	    -16.67391646	    -26.23002682	      6.46140849	     -3.51383057	    -18.07765493	      3.24301823	      8.64174896
      2.12000000	      7.19036736	      0.82035280	     57.14229643	      0.56936627	      0.99149363	      0.50323076	    -13.97733636	      5.74713886	    -20.18211869	    -15.48982248	     18.73549812	      5.70960568	     21.79801640	     -6.93688595	    -16.13816434	    -27.04067553	      6.26468768	     -4.54642248	    -18.03317155	      2.97262505	      8.58618387
      2.13000000	      7.14916189	      1.07552550	     57.34933379	      0.57191107	      0.99096650	      0.49628393	    -14.21789213	      5.39375566	    -20.08846486	    -16.31844232	     18.67670267	      6.21022113	     21.64242915	     -6.60079789	    -15.57282146	    -27.84137445	      6.12829210	     -5.44096033	    -17.96255628	      2.67043944	      8.44399494
      2.14000000	      7.10973570	      1.32926927	     57.53946494	      0.57434491	      0.99064386	      0.48924352	    -14.39690034	      5.01755659	    -19.92404220	    -17.25868872	     18.51150830	      6.82135389	     21.43823084	     -6.25772265	    -15.03169069	    -28.57495910	      6.10586580	     -6.31335525	    -17.89206758	      2.37907651	      8.36452379
      2.15000000	      7.00913511	      1.58936700	     57.75699867	      0.57658435	      0.99049131	      0.48206901	    -14.46673663	      4.55886729	    -19.76260440	    -18.34866153	     18.27068387	      7.43463622	     21.19566337	     -5.84012785	    -14.56651234	    -29.19111921	      6.14607218	     -6.93437691	    -17.78857606	      2.05570715	      8.24095812
      2.16000000	      6.89446357	      1.83820601	     57.95778282	      0.57870796	      0.99054533	      0.47483685	    -14.43931901	      4.06624151	    -19.52043920	    -19.57618091	     17.88563323	      8.15394402	     20.88620090	     -5.42506427	    -14.22699383	    -29.67386642	      6.29755327	     -7.42969412	    -17.66912003	      1.73877707	      8.13186878
      2.17000000	      6.73837922	      2.07257409	     58.13822885	      0.58068005	      0.99077563	      0.46761024	    -14.26190251	      3.50244180	    -19.24219981	    -21.00313219	     17.44181553	      8.86872780	     20.51957719	     -4.98688670	    -14.01103074	    -29.99998928	      6.47494531	     -7.72433070	    -17.52499174	      1.40283655	      8.07304898
      2.18000000	      6.57473916	      2.28182047	     58.30736893	      0.58254331	      0.99119627	      0.46040644	    -13.96439886	      2.92420083	    -18.87339611	    -22.57882436	     16.83473377	      9.68600652	     20.09121165	     -4.56740158	    -13.92040359	    -30.17848415	      6.75555856	     -7.92037178	    -17.36506817	      1.08110519	      8.01886874
